<svg xmlns="http://www.w3.org/2000/svg" width="400" height="220" viewBox="0 0 400 220"><path d="M366.476 3.17c5.888-.728 12.024.271 17.198 3.195 7.182 3.92 12.39 11.154 13.688 19.144.676 4.503.397 9.198-1.179 13.496-2.203 6.202-6.795 11.532-12.64 14.698-5.337 2.94-11.69 4.005-17.722 3.04-6.238-.967-12.08-4.153-16.244-8.826-4.255-4.71-6.741-10.931-6.869-17.231-.179-5.95 1.726-11.93 5.322-16.714 4.336-5.85 11.137-9.882 18.446-10.802m2.396 3.45c-2.48.54-4.247 2.633-5.237 4.825-.736 1.67-2.134 3.054-3.862 3.71-2.525 1.01-5.306-.011-7.885.662-2.263.644-3.904 3.003-3.54 5.318.524 3.12 3.072 5.573 3.168 8.807.195 1.815-1 3.307-1.756 4.847-.923 1.8-1.645 3.898-1.052 5.915.89 2.264 3.453 3.631 5.873 3.398 2.532-.123 5.368-.17 7.411 1.566 1.851 1.84 2.675 4.452 4.603 6.234 1.855 1.688 4.944 1.85 6.953.33 2.502-1.885 3.097-5.394 5.802-7.076 2.57-1.416 5.622-.576 8.393-1.035 2.285-.294 4.209-2.37 4.14-4.664-.012-2.617-1.88-4.663-2.753-7.018-.855-1.767-.653-3.89.291-5.58 1.03-2.05 2.477-4.133 2.25-6.524-.255-2.518-2.64-4.514-5.172-4.562-2.614-.242-5.599.486-7.83-1.245-2.409-1.58-3.017-4.615-5.14-6.447-1.22-1.15-2.976-1.8-4.657-1.462zM138.581 37.777c8.277-1.03 16.857.732 24.043 4.899 9.091 5.203 15.871 13.974 18.987 23.822 3.452 10.786 2.64 22.864-2.367 33.055-4.283 8.822-11.737 16.194-20.9 20.05-8.089 3.453-17.407 4.007-25.85 1.525-8.676-2.497-16.29-8.119-21.472-15.37-6.098-8.44-8.891-19.049-8.026-29.35.807-10.422 5.454-20.564 13.099-27.856 6.061-5.838 14.046-9.772 22.486-10.775m.409 21.44c-4.36.978-8.315 3.47-11.156 6.854-3.644 4.287-5.443 9.992-5.071 15.56.352 6.222 3.496 12.28 8.575 16.04 4.252 3.228 9.87 4.658 15.185 3.797 5.547-.836 10.581-4.148 13.71-8.712 3.293-4.714 4.549-10.707 3.568-16.332-1.019-6.119-4.792-11.786-10.239-14.945-4.324-2.56-9.657-3.379-14.572-2.262zM3.234 40.016c2.937-.011 5.876-.017 8.813.004A127499.04 127499.04 0 0 0 48.35 83.285c12.122-14.05 24.208-28.125 36.339-42.168 2.837.008 5.672 0 8.509.008.004 26.533.004 53.066 0 79.597-7.662.008-15.322.008-22.978 0-.004-9.125 0-18.253-.004-27.376-7.298 7.716-14.567 15.456-21.86 23.179-7.1-7.901-14.178-15.825-21.278-23.724-.003 9.211.004 18.42-.003 27.635-7.945.002-15.892.012-23.837-.006-.004-26.806-.004-53.608-.004-80.414zm190.698 1.109c2.743-.011 5.484 0 8.227-.008 13.257 11.623 26.483 23.282 39.736 34.908.008-11.546-.004-23.09.004-34.634 7.188.01 14.382-.052 21.564.032-.02 26.52-.004 53.043-.008 79.561-2.365.017-4.726.004-7.093.008-13.814-12.084-27.6-24.2-41.42-36.285 0 12.188-.006 24.38.004 36.567-7.007.015-14.009.008-21.016.004.002-26.715.002-53.434.002-80.153zm78.319.821c20.906 0 41.813-.004 62.722.004-.002 6.336.008 12.67-.007 19.006-6.716.007-13.433-.004-20.147.003-.006 20.108 0 40.215-.006 60.323-7.373.007-14.745.007-22.12.004-.012-20.02.004-40.039-.008-60.06-6.812-.007-13.621 0-20.434-.003-.005-6.426-.005-12.853 0-19.277zm34.201 93.611c8.822-1.067 17.768-.465 26.534.8-.659 5.963-1.314 11.924-1.992 17.884-4.21-.884-8.513-1.364-12.82-1.368-5.458-.037-10.79 1.85-15.387 4.66-4.728 2.942-8.582 7.504-9.832 12.949-1.514 6.61-.172 13.985 4.177 19.326 4.114 5.013 10.183 8.286 16.53 9.626 6.68 1.03 13.492.49 20.179-.223.079 5.801.47 11.617.065 17.409-8.272 1.244-16.704 1.74-25.044.918-5.12-.617-10.335-1.697-14.792-4.356-6.304-3.126-11.919-7.646-16.164-13.202-4.507-5.894-7.153-13.143-7.417-20.522-.266-7.736.792-15.715 4.392-22.684 2.347-4.604 5.899-8.54 10.036-11.663 3.01-2.294 6.333-4.145 9.61-6.035 3.634-2.076 7.804-2.979 11.925-3.519zm-235.806.243c7.328-.017 14.655-.01 21.982-.004.004 20.557-.004 41.113.004 61.674 5.87.042 11.747-.068 17.613.055-.065 6.426-.004 12.846-.029 19.275-13.237.01-26.475 0-39.71.004.015-27.003.117-54.003.14-81.004zm75.954-.215c3.478-.01 6.957-.003 10.437-.003 11.005 27.05 21.986 54.112 32.98 81.165-8.018-.02-16.035-.044-24.055-.047-4.672-11.598-9.306-23.213-13.973-34.812-5.174 11.625-10.368 23.234-15.545 34.853-7.645.029-15.29.044-22.932.063 11.025-27.08 22.06-54.147 33.088-81.219zm-143.89.505c13.71-.004 27.425-.021 41.135.007 6.073.43 12.288 3.29 15.553 8.515 3.099 4.966 3.334 11.143 2.324 16.742-.967 5.51-4.372 10.98-9.888 12.994 5.653 1.68 10.133 6.43 11.616 12.028 1.302 4.913 1.09 10.212-.478 15.042-1.689 5.2-5.685 9.521-10.626 11.939-3.65 1.809-7.677 2.937-11.766 3.153-12.623.008-25.245.008-37.87 0-.004-26.806-.004-53.614 0-80.42m22.373 14.296c.012 5.417.044 10.836.048 16.253 3.806.055 7.612.125 11.42.17 2.613.033 5.337-1.344 6.363-3.8 1.058-2.546 1.03-5.528.016-8.082-1.067-2.643-3.904-4.223-6.713-4.304-3.707-.1-7.42-.163-11.134-.237m-.574 31.794c-.004 5.486-.004 10.97 0 16.456 3.758-.007 7.515 0 11.27-.07 3.17-.459 6.336-2.48 7.32-5.603.861-2.787.428-6.16-1.758-8.259-2.011-1.905-4.894-2.647-7.622-2.694-3.068.047-6.138.098-9.21.17zm168.969-45.19c2.744-.01 5.49-.005 8.232-.005 13.247 11.628 26.481 23.272 39.728 34.904.014-11.543-.003-23.09.01-34.639 7.18-.004 14.365-.004 21.549.004.007 26.533.004 53.066.004 79.597-2.36.01-4.72 0-7.079.004-13.82-12.087-27.61-24.205-41.431-36.292-.002 12.182-.002 24.368-.002 36.55-7.003.017-14.006.004-21.007.004-.004-26.708-.004-53.417-.004-80.127z"/></svg>